<svg width="0" height="0" class="hidden">
    <symbol xmlns="http://www.w3.org/2000/svg" viewBox="0 0 24 24" id="facebook">
        <path d="M15.997 3.985h2.191V.169C17.81.117 16.51 0 14.996 0c-3.159 0-5.323 1.987-5.323 5.639V9H6.187v4.266h3.486V24h4.274V13.267h3.345l.531-4.266h-3.877V6.062c.001-1.233.333-2.077 2.051-2.077z"></path>
    </symbol>
    <symbol xmlns="http://www.w3.org/2000/svg" viewBox="0 0 512 512" id="twitter">
        <path d="M512 97.248c-19.04 8.352-39.328 13.888-60.48 16.576 21.76-12.992 38.368-33.408 46.176-58.016-20.288 12.096-42.688 20.64-66.56 25.408C411.872 60.704 384.416 48 354.464 48c-58.112 0-104.896 47.168-104.896 104.992 0 8.32.704 16.32 2.432 23.936-87.264-4.256-164.48-46.08-216.352-109.792-9.056 15.712-14.368 33.696-14.368 53.056 0 36.352 18.72 68.576 46.624 87.232-16.864-.32-33.408-5.216-47.424-12.928v1.152c0 51.008 36.384 93.376 84.096 103.136-8.544 2.336-17.856 3.456-27.52 3.456-6.72 0-13.504-.384-19.872-1.792 13.6 41.568 52.192 72.128 98.08 73.12-35.712 27.936-81.056 44.768-130.144 44.768-8.608 0-16.864-.384-25.12-1.44C46.496 446.88 101.6 464 161.024 464c193.152 0 298.752-160 298.752-298.688 0-4.64-.16-9.12-.384-13.568 20.832-14.784 38.336-33.248 52.608-54.496z"></path>
    </symbol>
    <symbol xmlns="http://www.w3.org/2000/svg" viewBox="0 0 511.958 511.958" id="behance">
        <path d="M210.624 240.619c10.624-5.344 18.656-11.296 24.16-17.728 9.792-11.584 14.624-26.944 14.624-45.984 0-18.528-4.832-34.368-14.496-47.648-16.128-21.632-43.424-32.704-82.016-33.28H0v312.096h142.56c16.064 0 30.944-1.376 44.704-4.192 13.76-2.848 25.664-8.064 35.744-15.68 8.96-6.624 16.448-14.848 22.4-24.544 9.408-14.656 14.112-31.264 14.112-49.76 0-17.92-4.128-33.184-12.32-45.728-8.288-12.544-20.448-21.728-36.576-27.552zM63.072 150.187h68.864c15.136 0 27.616 1.632 37.408 4.864 11.328 4.704 16.992 14.272 16.992 28.864 0 13.088-4.32 22.24-12.864 27.392-8.608 5.152-19.776 7.744-33.472 7.744H63.072v-68.864zm108.896 198.24c-7.616 3.68-18.336 5.504-32.064 5.504H63.072v-83.232h77.888c13.568.096 24.128 1.888 31.68 5.248 13.44 6.08 20.128 17.216 20.128 33.504 0 19.2-6.912 32.128-20.8 38.976zm155.2-237.888h135.584v38.848H327.168zm182.688 153.312c-2.816-18.08-9.024-33.984-18.688-47.712-10.592-15.552-24.032-26.944-40.384-34.144-16.288-7.232-34.624-10.848-55.04-10.816-34.272 0-62.112 10.72-83.648 32-21.472 21.344-32.224 52.032-32.224 92.032 0 42.656 11.872 73.472 35.744 92.384 23.776 18.944 51.232 28.384 82.4 28.384 37.728 0 67.072-11.232 88.032-33.632 13.408-14.144 20.992-28.064 22.656-41.728H446.24c-3.616 6.752-7.808 12.032-12.608 15.872-8.704 7.04-20.032 10.56-33.92 10.56-13.216 0-24.416-2.912-33.76-8.704-15.424-9.28-23.488-25.536-24.512-48.672h170.464c.256-19.936-.384-35.264-2.048-45.824zm-166.88 5.984c2.24-15.008 7.68-26.912 16.32-35.712 8.64-8.768 20.864-13.184 36.512-13.216 14.432 0 26.496 4.128 36.32 12.416 9.696 8.352 15.168 20.48 16.288 36.512h-105.44z"></path>
    </symbol>
</svg>